<svg width="132" height="40" viewBox="0 0 132 40" fill="none" xmlns="http://www.w3.org/2000/svg">
<path fill-rule="evenodd" clip-rule="evenodd" d="M0 20C0 8.95452 8.97719 0 20.0506 0C31.1241 0 40.1013 8.95452 40.1013 20C40.1013 31.046 31.1241 40 20.0506 40C8.97719 40 0 31.046 0 20ZM14.7398 15.5125C14.2866 15.5794 13.8345 15.6161 13.384 15.6161C12.7788 15.6161 12.1764 15.5503 11.575 15.4062C10.6227 15.1782 9.76118 14.7621 8.95045 14.2272C8.84495 14.1576 8.65088 14.088 8.57871 14.1362C8.48414 14.1992 8.43166 14.3801 8.42947 14.5117C8.41635 15.2719 8.42291 16.0326 8.42291 16.7934C8.42291 17.7301 8.42346 18.6663 8.42346 19.603C8.42346 21.614 8.42346 23.6244 8.42127 25.6359C8.42018 26.0487 8.56395 26.3846 8.91765 26.6044C10.3997 27.5269 12.0211 27.9314 13.7661 27.8574C15.1257 27.7998 16.4388 27.4984 17.7246 27.0829C19.1547 26.6198 20.5728 26.1199 21.9991 25.6436C23.2466 25.2271 24.5154 24.8872 25.8296 24.7628C27.7474 24.5836 29.5558 24.9289 31.2111 25.9489C31.5943 26.1846 31.7556 26.0903 31.7556 25.6529C31.7561 23.7943 31.7561 21.9357 31.7561 20.0771V19.603C31.7561 17.9104 31.754 16.219 31.7578 14.5281C31.7589 14.0447 31.55 13.6944 31.1499 13.4248C28.9834 11.9613 26.6196 11.7794 24.1732 12.4607C22.7453 12.858 21.354 13.3919 19.9627 13.9077C18.2516 14.5424 16.564 15.2417 14.7398 15.5125Z" fill="white"/>
<path fill-rule="evenodd" clip-rule="evenodd" d="M53.3834 10.4036C53.3952 10.4036 53.4068 10.4027 53.4184 10.4019C53.4302 10.4009 53.442 10.4 53.4543 10.4C53.4662 10.4 53.4783 10.4009 53.4903 10.4018C53.5024 10.4027 53.5145 10.4036 53.5264 10.4036H53.8284L53.7766 10.4157C58.7541 10.5894 62.7392 14.7184 62.7392 19.7983C62.7392 24.888 58.741 29.0218 53.7516 29.1822L53.8284 29.2009H50.7728H50.7644H46.7848V26.3286V13.2687V10.4036H50.7644H50.7728H53.3834ZM69.6735 18.2914C69.7718 13.9169 73.2969 10.4 77.6412 10.4C81.9866 10.4 85.5117 13.9169 85.6094 18.2914H85.6189V21.1286V25.1654V29.1967H81.631V25.1654H73.652V29.1967H69.6646V25.1654V21.1286V18.2914H69.6735ZM73.652 18.4512V21.1286H81.631V18.4512H81.6292C81.6173 16.2326 79.8371 14.4374 77.6412 14.4374C75.4464 14.4374 73.6663 16.2326 73.6532 18.4512H73.652ZM123.418 10.4C119.074 10.4 115.547 13.9169 115.45 18.2914H115.441V21.1286V25.1654V29.1967H119.429V25.1654H127.407V29.1967H131.396V25.1654V21.1286V18.2914H131.386C131.288 13.9169 127.762 10.4 123.418 10.4ZM119.429 18.4512V21.1286H127.407V18.4512H127.406C127.393 16.2326 125.613 14.4374 123.418 14.4374C121.223 14.4374 119.443 16.2326 119.43 18.4512H119.429ZM92.5643 18.2914H92.5744C92.6715 13.9169 96.1972 10.4 100.542 10.4C104.886 10.4 108.413 13.9169 108.51 18.2914H108.519V29.1973H104.531V18.4506H104.531C104.517 16.2326 102.737 14.4374 100.542 14.4374C98.3467 14.4374 96.5672 16.2326 96.5535 18.4506H96.5523V29.1973H92.5643V18.2914ZM50.7644 15.1893V14.4398L53.7736 14.453C56.5492 14.6219 58.7512 16.9472 58.7512 19.7983C58.7512 22.6429 56.5612 24.964 53.7957 25.1437L50.7644 25.1509V24.4013L50.7728 24.4031V15.1875L50.7644 15.1893Z" fill="white"/>
</svg>
