<?xml version="1.0" encoding="UTF-8" standalone="no"?>
<!-- Created with Inkscape (http://www.inkscape.org/) -->

<svg
   version="1.1"
   id="svg2"
   width="556.61865"
   height="167.908"
   viewBox="0 0 556.61865 167.908"
   sodipodi:docname="GojekLogo.ai"
   xmlns:inkscape="http://www.inkscape.org/namespaces/inkscape"
   xmlns:sodipodi="http://sodipodi.sourceforge.net/DTD/sodipodi-0.dtd"
   xmlns="http://www.w3.org/2000/svg"
   xmlns:svg="http://www.w3.org/2000/svg">
  <defs
     id="defs6">
    <clipPath
       clipPathUnits="userSpaceOnUse"
       id="clipPath16">
      <path
         d="M 0,125.931 H 417.464 V 0 H 0 Z"
         id="path14" />
    </clipPath>
  </defs>
  <sodipodi:namedview
     id="namedview4"
     pagecolor="#ffffff"
     bordercolor="#000000"
     borderopacity="0.25"
     inkscape:showpageshadow="2"
     inkscape:pageopacity="0.0"
     inkscape:pagecheckerboard="0"
     inkscape:deskcolor="#d1d1d1" />
  <g
     id="g8"
     inkscape:groupmode="layer"
     inkscape:label="GojekLogo"
     transform="matrix(1.3333333,0,0,-1.3333333,0,167.908)">
    <g
       id="g10">
      <g
         id="g12"
         clip-path="url(#clipPath16)">
        <g
           id="g18"
           transform="translate(56.5529,114.3781)">
          <path
             d="m 0,0 c -25.57,-1.181 -46.383,-21.833 -47.748,-47.394 -1.12,-20.985 10.658,-39.339 28.116,-47.867 6.51,-3.18 14.254,0.817 15.512,7.951 v 0 c 0.847,4.801 -1.597,9.567 -5.973,11.714 -9.932,4.874 -16.595,15.385 -15.807,27.365 0.921,14.013 12.255,25.39 26.264,26.358 16.565,1.146 30.359,-11.953 30.359,-28.273 0,-11.202 -6.501,-20.881 -15.935,-25.481 -4.308,-2.101 -6.669,-6.841 -5.836,-11.561 0.014,-0.08 0.028,-0.16 0.042,-0.24 1.237,-7.013 8.836,-11.011 15.246,-7.907 16.773,8.124 28.341,25.301 28.341,45.189 C 52.581,-21.632 28.807,1.33 0,0"
             style="fill:#00aa13;fill-opacity:1;fill-rule:evenodd;stroke:none"
             id="path20" />
        </g>
        <g
           id="g22"
           transform="translate(58.9797,46.5558)">
          <path
             d="m 0,0 c -9.747,0 -17.677,7.929 -17.677,17.676 0,9.747 7.93,17.677 17.677,17.677 9.746,0 17.676,-7.93 17.676,-17.677 C 17.676,7.929 9.746,0 0,0"
             style="fill:#00aa13;fill-opacity:1;fill-rule:evenodd;stroke:none"
             id="path24" />
        </g>
        <g
           id="g26"
           transform="translate(317.1702,80.3257)">
          <path
             d="M 0,0 C 6.504,0 12.087,-3.942 14.492,-9.567 H -14.492 C -12.087,-3.942 -6.505,0 0,0 m 14.553,-24.043 c -0.474,0.274 -1.079,0.13 -1.379,-0.328 C 10.363,-28.667 5.518,-31.51 0,-31.51 c -7.28,0 -13.404,4.939 -15.211,11.648 h 9.584 20.838 12.119 c 0.521,0 0.969,0.386 1.027,0.904 0.119,1.051 0.183,2.12 0.183,3.203 0,16.209 -13.513,29.262 -29.888,28.509 -14.621,-0.673 -26.488,-12.54 -27.161,-27.161 -0.753,-16.375 12.3,-29.888 28.509,-29.888 10.206,0 19.154,5.362 24.197,13.418 0.313,0.5 0.156,1.159 -0.354,1.454 z"
             style="fill:#454545;fill-opacity:1;fill-rule:evenodd;stroke:none"
             id="path28" />
        </g>
        <g
           id="g30"
           transform="translate(231.7396,48.7399)">
          <path
             d="m 0,0 c -8.671,0 -15.701,7.029 -15.701,15.701 0,8.671 7.03,15.7 15.701,15.7 8.671,0 15.701,-7.029 15.701,-15.7 C 15.701,7.029 8.671,0 0,0 m 0,44.205 c -15.742,0 -28.504,-12.762 -28.504,-28.504 0,-15.743 12.762,-28.505 28.504,-28.505 15.742,0 28.504,12.762 28.504,28.505 0,15.742 -12.762,28.504 -28.504,28.504"
             style="fill:#454545;fill-opacity:1;fill-rule:evenodd;stroke:none"
             id="path32" />
        </g>
        <g
           id="g34"
           transform="translate(280.155,92.1615)">
          <path
             d="m 0,0 h -11.413 c -0.529,0 -0.96,-0.398 -1.022,-0.911 l 0.001,-52.547 c 0,-4.834 -1.682,-8.787 -4.863,-11.432 -2.073,-1.723 -4.773,-2.863 -7.796,-3.325 -0.506,-0.077 -0.882,-0.509 -0.882,-1.021 v -10.393 c 0,-0.571 0.463,-1.034 1.035,-1.034 h 0.123 c 14.245,0 25.793,11.548 25.793,25.793 L 1.035,-1.035 C 1.035,-0.463 0.571,0 0,0"
             style="fill:#454545;fill-opacity:1;fill-rule:evenodd;stroke:none"
             id="path36" />
        </g>
        <g
           id="g38"
           transform="translate(182.1621,64.3283)">
          <path
             d="m 0,0 c -0.089,-8.534 -7.031,-15.426 -15.586,-15.426 -8.61,0 -15.59,6.98 -15.59,15.591 0,8.61 6.98,15.59 15.59,15.59 C -7.031,15.755 -0.089,8.863 0,0.329 Z M 12.447,27.841 H 1.035 C 0.463,27.841 0,27.378 0,26.807 v -1.385 l 0.01,-0.009 v -2.227 c -2.035,2.354 -5.259,3.659 -6.534,4.107 -2.873,0.96 -5.948,1.478 -9.146,1.469 -15.529,-0.045 -28.293,-12.659 -28.51,-28.187 -0.225,-15.982 12.664,-29.008 28.594,-29.008 3.182,0 6.242,0.522 9.101,1.482 1.3,0.46 4.483,1.763 6.498,4.095 v -2.227 0 -0.534 c 0,-4.834 -1.682,-8.787 -4.863,-11.431 -2.761,-2.295 -6.632,-3.559 -10.902,-3.56 h -0.002 c -6.208,0 -12.155,2.543 -15.644,6.585 -0.387,0.449 -1.074,0.476 -1.499,0.062 l -7.569,-7.372 c -0.412,-0.401 -0.417,-1.06 -0.015,-1.47 6.441,-6.582 14.81,-9.952 24.894,-10.019 h 3.217 c 14.245,0 25.793,11.548 25.793,25.794 v 5.033 c 10e-4,0.038 0.004,0.075 0.004,0.114 l 0.055,48.688 c 0,0.571 -0.464,1.034 -1.035,1.034"
             style="fill:#454545;fill-opacity:1;fill-rule:evenodd;stroke:none"
             id="path40" />
        </g>
        <g
           id="g42"
           transform="translate(393.8228,36.905)">
          <path
             d="m 0,0 c -0.18,0 -0.352,0.086 -0.459,0.231 l -17.555,23.582 -9.249,-8.999 V 0.658 c 0,-0.315 -0.257,-0.571 -0.572,-0.571 H -40.1 c -0.315,0 -0.572,0.256 -0.572,0.571 v 70.816 c 0,0.315 0.257,0.572 0.572,0.572 h 12.265 c 0.315,0 0.572,-0.257 0.572,-0.572 V 32.28 l 23.591,22.797 c 0.107,0.104 0.248,0.161 0.397,0.161 h 16.253 c 0.358,0 0.496,-0.273 0.53,-0.357 0.034,-0.084 0.125,-0.377 -0.132,-0.626 L -8.859,32.686 14.795,0.913 C 14.926,0.736 14.946,0.512 14.846,0.315 14.747,0.118 14.556,0 14.335,0 Z"
             style="fill:#454545;fill-opacity:1;fill-rule:evenodd;stroke:none"
             id="path44" />
        </g>
      </g>
    </g>
  </g>
</svg>
